<svg xmlns="http://www.w3.org/2000/svg" width="108" height="108" viewBox="0 0 108 108">
  <defs>
    <linearGradient id="gold" x1="0" y1="0" x2="1" y2="1">
      <stop offset="0"    stop-color="#FFE9A8"/>
      <stop offset="0.55" stop-color="#F5C542"/>
      <stop offset="1"    stop-color="#E39A12"/>
    </linearGradient>
  </defs>
  
  <rect x="41.0" y="22" width="7" height="11" rx="3" fill="url(#gold)"/>
  <rect x="41.0" y="75" width="7" height="11" rx="3" fill="url(#gold)"/>
  <rect x="60.0" y="22" width="7" height="11" rx="3" fill="url(#gold)"/>
  <rect x="60.0" y="75" width="7" height="11" rx="3" fill="url(#gold)"/>
  <rect x="22" y="41.0" width="11" height="7" rx="3" fill="url(#gold)"/>
  <rect x="75" y="41.0" width="11" height="7" rx="3" fill="url(#gold)"/>
  <rect x="22" y="60.0" width="11" height="7" rx="3" fill="url(#gold)"/>
  <rect x="75" y="60.0" width="11" height="7" rx="3" fill="url(#gold)"/>
  <rect x="30" y="30" width="48" height="48" rx="12" fill="none" stroke="url(#gold)" stroke-width="7"/>
  <path d="M 54,41 Q 56.8,51.2 67,54 Q 56.8,56.8 54,67 Q 51.2,56.8 41,54 Q 51.2,51.2 54,41 Z" fill="url(#gold)"/>
</svg>
